HIERARCHY
ROOT Hips
{
    OFFSET 0.000000 0.000000 0.000000
    CHANNELS 6 Xposition Yposition Zposition Zrotation Xrotation Yrotation
    JOINT Spine
    {
        OFFSET -0.000000 8.104110 0.000000
        CHANNELS 3 Zrotation Xrotation Yrotation
        JOINT Spine1
        {
            OFFSET -0.000000 22.417536 0.000000
            CHANNELS 3 Zrotation Xrotation Yrotation
            JOINT Neck
            {
                OFFSET -0.000000 22.325472 2.029588
                CHANNELS 3 Zrotation Xrotation Yrotation
                JOINT Head
                {
                    OFFSET -0.000000 13.836284 -1.976612
                    CHANNELS 3 Zrotation Xrotation Yrotation
                    End Site
                    {
                        OFFSET -0.000000 24.707651 0.000000
                    }
                }
            }
            JOINT LeftShoulder
            {
                OFFSET 3.973640 20.379602 -0.279950
                CHANNELS 3 Zrotation Xrotation Yrotation
                JOINT LeftArm
                {
                    OFFSET 11.493720 0.000000 0.000000
                    CHANNELS 3 Zrotation Xrotation Yrotation
                    JOINT LeftForeArm
                    {
                        OFFSET 31.336695 0.000000 0.000000
                        CHANNELS 3 Zrotation Xrotation Yrotation
                        JOINT LeftHand
                        {
                            OFFSET 29.043781 0.000000 0.000000
                            CHANNELS 3 Zrotation Xrotation Yrotation
                            End Site
                            {
                                OFFSET 14.824592 0.000000 0.000000
                            }
                        }
                    }
                }
            }
            JOINT RightShoulder
            {
                OFFSET -3.921018 20.379602 -0.279950
                CHANNELS 3 Zrotation Xrotation Yrotation
                JOINT RightArm
                {
                    OFFSET -11.493720 0.000000 0.000000
                    CHANNELS 3 Zrotation Xrotation Yrotation
                    JOINT RightForeArm
                    {
                        OFFSET -31.336695 0.000000 0.000000
                        CHANNELS 3 Zrotation Xrotation Yrotation
                        JOINT RightHand
                        {
                            OFFSET -29.043781 0.000000 0.000000
                            CHANNELS 3 Zrotation Xrotation Yrotation
                            End Site
                            {
                                OFFSET -14.824592 0.000000 0.000000
                            }
                        }
                    }
                }
            }
        }
    }
    JOINT LeftUpLeg
    {
        OFFSET 9.883060 0.000000 0.000000
        CHANNELS 3 Zrotation Xrotation Yrotation
        JOINT LeftLeg
        {
            OFFSET -0.000000 -43.587502 0.000000
            CHANNELS 3 Zrotation Xrotation Yrotation
            JOINT LeftFoot
            {
                OFFSET -0.000000 -41.501083 0.000000
                CHANNELS 3 Zrotation Xrotation Yrotation
                JOINT LeftToeBase
                {
                    OFFSET -0.000000 -6.423989 14.824592
                    CHANNELS 3 Zrotation Xrotation Yrotation
                    End Site
                    {
                        OFFSET -0.000000 0.000000 3.953224
                    }
                }
            }
        }
    }
    JOINT RightUpLeg
    {
        OFFSET -9.883060 0.000000 0.000000
        CHANNELS 3 Zrotation Xrotation Yrotation
        JOINT RightLeg
        {
            OFFSET -0.000000 -43.587502 0.000000
            CHANNELS 3 Zrotation Xrotation Yrotation
            JOINT RightFoot
            {
                OFFSET -0.000000 -41.501083 0.000000
                CHANNELS 3 Zrotation Xrotation Yrotation
                JOINT RightToeBase
                {
                    OFFSET -0.000000 -6.423989 14.824592
                    CHANNELS 3 Zrotation Xrotation Yrotation
                    End Site
                    {
                        OFFSET -0.000000 0.000000 3.953224
                    }
                }
            }
        }
    }
}
MOTION
Frames:    10
Frame Time:    0.008333
-2.807743    94.284302    -22.562078    -1.652664    0.807809    -171.691925    -2.124582    -12.364330    -0.300798    -0.341722    8.818740    -0.044778    0.423444    9.948906    -1.855465    1.209424    6.815169    -1.855224    17.631332    -3.351549    -1.719669    -18.768942    -4.370229    2.339334    0.309080    -0.870980    1.116089    2.573248    -0.967434    -4.160769    -17.471161    -0.393098    -6.469628    15.113704    1.733355    3.009594    0.311880    -1.439154    -0.168467    0.087261    -1.436467    2.907186    -2.790648    9.778921    -7.146809    0.462211    -2.731507    -3.655628    -3.099588    -3.378712    9.157533    0.000000    0.000000    0.000000    -1.934567    13.597095    6.262491    3.616413    -5.650578    4.300020    -2.944559    -5.699932    -18.379225    0.000000    0.000000    0.000000    
-2.812012    94.284355    -22.556185    -1.653092    0.805207    -171.693848    -2.137098    -12.367797    -0.297935    -0.339083    8.827189    -0.040358    0.495883    10.006927    -1.844135    1.148821    6.743712    -1.851827    17.648029    -3.359060    -1.721610    -18.794975    -4.356443    2.331042    0.313706    -0.873867    1.106688    2.549896    -0.968530    -4.115656    -17.438219    -0.399296    -6.474224    15.112239    1.711960    2.981243    0.291838    -1.439509    -0.145653    0.080974    -1.437066    2.898656    -2.785970    9.785549    -7.151388    0.462358    -2.721860    -3.705055    -3.085665    -3.423289    9.201783    0.000000    0.000000    0.000000    -1.938911    13.592765    6.239541    3.619100    -5.651962    4.346190    -2.934270    -5.705341    -18.408972    0.000000    0.000000    0.000000    
-2.817487    94.283798    -22.547922    -1.656035    0.795698    -171.683090    -2.097091    -12.443460    -0.357613    -0.390330    8.955852    -0.098326    0.373240    9.876098    -1.753883    1.265534    6.927000    -1.743287    17.617661    -3.383388    -1.578799    -18.751013    -4.300168    2.313262    0.290855    -0.929577    1.106523    2.545434    -1.024632    -4.149340    -17.494402    -0.454772    -6.400146    15.168924    1.617784    3.030976    0.319730    -1.438195    -0.186397    0.059619    -1.436128    2.925745    -2.794132    9.773764    -7.165744    0.467358    -2.728250    -3.663657    -3.091715    -3.416452    9.165007    0.000000    0.000000    0.000000    -1.948980    13.584298    6.282359    3.630363    -5.662271    4.299644    -2.992266    -5.672243    -18.486395    0.000000    0.000000    0.000000    
-2.822888    94.283440    -22.539967    -1.653386    0.791554    -171.682831    -2.095093    -12.434281    -0.360595    -0.401380    8.930293    -0.100960    0.426510    10.003446    -1.796918    1.240838    6.777442    -1.791212    17.619926    -3.378080    -1.593084    -18.761494    -4.291721    2.322698    0.285899    -0.958714    1.106946    2.581236    -1.054906    -4.143556    -17.456360    -0.455242    -6.379422    15.168434    1.550946    3.006132    0.304688    -1.412163    -0.184849    0.070870    -1.409862    2.958516    -2.793908    9.769650    -7.170010    0.466602    -2.741807    -3.624727    -3.103927    -3.407021    9.129326    0.000000    0.000000    0.000000    -1.944912    13.572803    6.249022    3.616297    -5.654976    4.316392    -2.955678    -5.685923    -18.466866    0.000000    0.000000    0.000000    
-2.822416    94.283463    -22.533312    -1.643928    0.786182    -171.681915    -2.092382    -12.451148    -0.369205    -0.410950    8.969388    -0.108830    0.401098    9.899050    -1.821771    1.340087    6.953339    -1.809682    17.646896    -3.388004    -1.542756    -18.783890    -4.295935    2.283659    0.273615    -0.974313    1.114005    2.548732    -1.069652    -4.164727    -17.446936    -0.478102    -6.392170    15.177318    1.574854    3.013523    0.321914    -1.431492    -0.179555    0.086964    -1.428774    2.977556    -2.778354    9.767401    -7.179521    0.457690    -2.753057    -3.671044    -3.100538    -3.418077    9.175460    0.000000    0.000000    0.000000    -1.940070    13.564604    6.285479    3.617847    -5.663113    4.307329    -2.975530    -5.678547    -18.489143    0.000000    0.000000    0.000000    
-2.827933    94.281670    -22.526072    -1.635437    0.784712    -171.677780    -2.094479    -12.466709    -0.378801    -0.391290    9.001937    -0.119442    0.398038    9.887966    -1.822356    1.344007    6.981691    -1.810180    17.641424    -3.402385    -1.532171    -18.804407    -4.291225    2.281282    0.272365    -0.976682    1.111513    2.550562    -1.071719    -4.150985    -17.470190    -0.483084    -6.387873    15.210176    1.532012    3.010883    0.318099    -1.419211    -0.174712    0.107274    -1.416008    2.956002    -2.772564    9.761062    -7.191512    0.456289    -2.762884    -3.563044    -3.110852    -3.410472    9.068427    0.000000    0.000000    0.000000    -1.933397    13.561057    6.298742    3.614962    -5.669414    4.278602    -2.986105    -5.668597    -18.476315    0.000000    0.000000    0.000000    
-2.829384    94.282471    -22.520546    -1.630691    0.779205    -171.680115    -2.098422    -12.473377    -0.376391    -0.395090    9.003227    -0.116265    0.458026    9.970204    -1.817169    1.297124    6.886211    -1.810723    17.651354    -3.399073    -1.532986    -18.820196    -4.249723    2.270798    0.268546    -0.995502    1.099543    2.533283    -1.089702    -4.140780    -17.426661    -0.478225    -6.392080    15.190065    1.513820    3.009562    0.320897    -1.393207    -0.186182    0.134972    -1.389209    2.987263    -2.764238    9.740426    -7.216742    0.447506    -2.734176    -3.592591    -3.103921    -3.428747    9.121677    0.000000    0.000000    0.000000    -1.932155    13.548758    6.288713    3.618504    -5.665654    4.274169    -2.986350    -5.668008    -18.461040    0.000000    0.000000    0.000000    
-2.832940    94.281044    -22.514343    -1.626185    0.773098    -171.686584    -2.099430    -12.483212    -0.381270    -0.383442    9.004219    -0.121313    0.478132    9.989932    -1.811865    1.260878    6.904779    -1.809561    17.637880    -3.399201    -1.547064    -18.823856    -4.285410    2.285401    0.266058    -0.979454    1.103445    2.506722    -1.072890    -4.150710    -17.427229    -0.445721    -6.404350    15.192775    1.523185    3.047431    0.310108    -1.469600    -0.225064    0.123303    -1.465649    3.100395    -2.757419    9.736951    -7.233475    0.436779    -2.748025    -3.552118    -3.098741    -3.427602    9.102099    0.000000    0.000000    0.000000    -1.932935    13.534431    6.276824    3.612997    -5.654323    4.348908    -2.983050    -5.677200    -18.498182    0.000000    0.000000    0.000000    
-2.836057    94.281097    -22.511295    -1.622346    0.782017    -171.695862    -2.091373    -12.481115    -0.378729    -0.395636    9.021393    -0.118798    0.477541    9.984035    -1.818889    1.295908    6.932998    -1.814253    17.658978    -3.403184    -1.524295    -18.847958    -4.328386    2.252628    0.273997    -0.970582    1.098390    2.449587    -1.060724    -4.093750    -17.422581    -0.462365    -6.402811    15.201252    1.716516    3.013921    0.329949    -1.474716    -0.151928    0.216589    -1.468716    2.969237    -2.758869    9.748100    -7.222530    0.450065    -2.754806    -3.579931    -3.122900    -3.432750    9.121447    0.000000    0.000000    0.000000    -1.930548    13.539833    6.281691    3.617877    -5.652404    4.334699    -2.984478    -5.679070    -18.501661    0.000000    0.000000    0.000000    
-2.840842    94.279816    -22.506069    -1.621517    0.779937    -171.708176    -2.099736    -12.489491    -0.380774    -0.367807    9.034598    -0.121845    0.461847    10.012521    -1.826399    1.292375    6.909209    -1.821054    17.631166    -3.406201    -1.516526    -18.845978    -4.354450    2.241709    0.266260    -0.973781    1.114084    2.456127    -1.064733    -4.119454    -17.447483    -0.454029    -6.403191    15.218685    1.734448    3.020267    0.326278    -1.491774    -0.140385    0.246553    -1.485134    2.901823    -2.764733    9.749218    -7.226261    0.452773    -2.770442    -3.508631    -3.125563    -3.408269    9.066764    0.000000    0.000000    0.000000    -1.935931    13.531683    6.279865    3.616765    -5.652659    4.321535    -2.995358    -5.672658    -18.466961    0.000000    0.000000    0.000000    
